<svg width="18" height="19" viewBox="0 0 18 19" fill="none" xmlns="http://www.w3.org/2000/svg">
<path d="M1.5 9.5C1.5 5.96447 1.5 4.1967 2.59835 3.09835C3.6967 2 5.46447 2 9 2C12.5355 2 14.3033 2 15.4016 3.09835C16.5 4.1967 16.5 5.96447 16.5 9.5C16.5 13.0355 16.5 14.8033 15.4016 15.9016C14.3033 17 12.5355 17 9 17C5.46447 17 3.6967 17 2.59835 15.9016C1.5 14.8033 1.5 13.0355 1.5 9.5Z" stroke="#53A6D8" strokeWidth="1.5"/>
<path d="M11.25 9.50002L9 9.50002M9 9.50002L6.75 9.50002M9 9.50002L9 7.25M9 9.50002L9 11.75" stroke="#53A6D8" strokeWidth="1.5" strokeLinecap="round"/>
</svg>
