<svg width="16" height="17" viewBox="0 0 16 17" fill="none" xmlns="http://www.w3.org/2000/svg">
<path fillRule="evenodd" clipRule="evenodd" d="M9.39946 2.0941C10.4138 1.0798 12.0583 1.0798 13.0726 2.0941C14.0869 3.10841 14.0869 4.75292 13.0726 5.76722L8.0099 10.8299C7.72457 11.1153 7.55032 11.2895 7.3561 11.441C7.12728 11.6195 6.8797 11.7725 6.61774 11.8974C6.39539 12.0033 6.16159 12.0812 5.77875 12.2088L3.99698 12.8028L3.5692 12.9453C3.1863 13.073 2.76415 12.9733 2.47876 12.6879C2.19336 12.4025 2.0937 11.9804 2.22134 11.5975L2.95785 9.38794C3.08544 9.00509 3.16336 8.77129 3.26933 8.54894C3.39417 8.28698 3.54719 8.0394 3.72566 7.81058C3.87715 7.61636 4.05142 7.4421 4.33679 7.15677L9.39946 2.0941ZM3.97391 11.7563L3.41033 11.1928L3.89595 9.73593C4.03734 9.31176 4.09573 9.1393 4.17205 8.97916C4.26565 8.78276 4.38037 8.59715 4.51417 8.4256C4.62327 8.28572 4.75141 8.15636 5.06757 7.84021L8.99488 3.91289C9.15699 4.31955 9.43127 4.81036 9.89379 5.27289C10.3563 5.73541 10.8471 6.00969 11.2538 6.1718L7.32647 10.0991C7.01032 10.4153 6.88096 10.5434 6.74108 10.6525C6.56953 10.7863 6.38392 10.901 6.18752 10.9946C6.02738 11.0709 5.85492 11.1293 5.43076 11.2707L3.97391 11.7563ZM12.0506 5.37498C11.9681 5.35685 11.8648 5.32959 11.7475 5.28887C11.4248 5.17692 11.0003 4.96523 10.6009 4.56578C10.2015 4.16633 9.98976 3.74188 9.87781 3.4192C9.83709 3.30184 9.80983 3.19862 9.7917 3.11607L10.1066 2.80121C10.7303 2.17743 11.7417 2.17743 12.3655 2.80121C12.9893 3.42499 12.9893 4.43634 12.3655 5.06012L12.0506 5.37498ZM2.16664 15.1667C2.16664 14.8906 2.3905 14.6667 2.66664 14.6667H13.3333V15.6667H2.66664C2.3905 15.6667 2.16664 15.4428 2.16664 15.1667Z" fill="#0A0A0A"/>
</svg>
