<svg width="24" height="25" viewBox="0 0 24 25" fill="none" xmlns="http://www.w3.org/2000/svg">
<path d="M22 22.5L2 22.5" stroke="#1C274C" strokeWidth="1.5" strokeLinecap="round"/>
<path d="M20.9996 22.5V6.5C20.9996 4.61438 20.9996 3.67157 20.4138 3.08579C19.828 2.5 18.8852 2.5 16.9996 2.5H14.9996C13.1139 2.5 12.1711 2.5 11.5853 3.08579C11.1138 3.55733 11.0218 4.26022 11.0039 5.5" stroke="#1C274C" strokeWidth="1.5"/>
<path d="M15 22.5V9.5C15 7.61438 15 6.67157 14.4142 6.08579C13.8284 5.5 12.8856 5.5 11 5.5H7C5.11438 5.5 4.17157 5.5 3.58579 6.08579C3 6.67157 3 7.61438 3 9.5V22.5" stroke="#1C274C" strokeWidth="1.5"/>
<path d="M9 22.5V19.5" stroke="#1C274C" strokeWidth="1.5" strokeLinecap="round"/>
<path d="M6 8.5H12" stroke="#1C274C" strokeWidth="1.5" strokeLinecap="round"/>
<path d="M6 11.5H12" stroke="#1C274C" strokeWidth="1.5" strokeLinecap="round"/>
<path d="M6 14.5H12" stroke="#1C274C" strokeWidth="1.5" strokeLinecap="round"/>
</svg>
