<svg width="24" height="25" viewBox="0 0 24 25" fill="none" xmlns="http://www.w3.org/2000/svg">
<path d="M6 11.5C6 8.67157 6 7.25736 6.87868 6.37868C7.75736 5.5 9.17157 5.5 12 5.5H15C17.8284 5.5 19.2426 5.5 20.1213 6.37868C21 7.25736 21 8.67157 21 11.5V16.5C21 19.3284 21 20.7426 20.1213 21.6213C19.2426 22.5 17.8284 22.5 15 22.5H12C9.17157 22.5 7.75736 22.5 6.87868 21.6213C6 20.7426 6 19.3284 6 16.5V11.5Z" stroke="#121212" strokeWidth="1.5"/>
<path d="M6 19.5C4.34315 19.5 3 18.1569 3 16.5V10.5C3 6.72876 3 4.84315 4.17157 3.67157C5.34315 2.5 7.22876 2.5 11 2.5H15C16.6569 2.5 18 3.84315 18 5.5" stroke="#121212" strokeWidth="1.5"/>
</svg>
