<svg width="24" height="25" viewBox="0 0 24 25" fill="none" xmlns="http://www.w3.org/2000/svg">
<path d="M22 10.5H18" stroke="#121212" strokeWidth="1.5" strokeLinecap="round"/>
<path d="M22 13.5H19" stroke="#121212" strokeWidth="1.5" strokeLinecap="round"/>
<path d="M16 21.5V22.5" stroke="#121212" strokeWidth="1.5" strokeLinecap="round"/>
<path d="M2 22.5V8.5C2 5.67157 2 4.25736 2.87868 3.37868C3.75736 2.5 5.17157 2.5 8 2.5H11.8913L11.9355 2.50008C12.6224 2.50503 13.2869 2.74559 13.8178 3.18156L13.8517 3.20975C13.8926 3.24382 13.913 3.26086 13.9309 3.27532C14.5341 3.76249 15.2747 3.98035 16 3.93581M18.5 2.5L17.9774 3.02261C17.9398 3.06024 17.9209 3.07906 17.9044 3.09508C17.3724 3.61098 16.6932 3.89324 16 3.93581M16 2.5V3.93581M16 3.93581V6.5" stroke="#121212" strokeWidth="1.5" strokeLinecap="round"/>
<path d="M22 17.0069V10.5C22 8.61438 22 7.67157 21.4142 7.08579C20.8284 6.5 19.8856 6.5 18 6.5H14C12.1144 6.5 11.1716 6.5 10.5858 7.08579C10 7.67157 10 8.61438 10 10.5V17.0069C10 17.6639 10.277 18.2906 10.7629 18.7329C13.7315 21.435 18.2685 21.435 21.2371 18.7329C21.723 18.2906 22 17.6639 22 17.0069Z" stroke="#121212" strokeWidth="1.5" strokeLinecap="round"/>
</svg>
