<svg width="46" height="40" viewBox="0 0 46 40" fill="none" xmlns="http://www.w3.org/2000/svg">
<rect width="46" height="40" rx="8" fill="#C9FFE6"/>
<path d="M26 8H18.0464C17.4686 8 17 8.52066 17 9.16266V14.002H26V8Z" fill="#169154"/>
<path d="M17 26.0361V30.8374C17 31.4794 17.4686 32.0001 18.0458 32.0001H26V26.0361H17Z" fill="#18482A"/>
<path d="M17 14.002H26V20.0033H17V14.002Z" fill="#0C8045"/>
<path d="M17 20.0029H26V26.0362H17V20.0029Z" fill="#17472A"/>
<path d="M33.9536 8H26V14.002H35V9.16266C35 8.52066 34.5314 8 33.9536 8Z" fill="#29C27F"/>
<path d="M26 26.0361V32.0001H33.9542C34.5314 32.0001 35 31.4794 35 30.8381V26.0368L26 26.0361Z" fill="#27663F"/>
<path d="M26 14.002H35V20.0033H26V14.002Z" fill="#19AC65"/>
<path d="M26 20.0029H35V26.0362H26V20.0029Z" fill="#129652"/>
<path d="M21.9914 26.6663H12.0086C11.4518 26.6663 11 26.1643 11 25.5456V14.4537C11 13.835 11.4518 13.333 12.0086 13.333H21.9914C22.5482 13.333 23 13.835 23 14.4537V25.5456C23 26.1643 22.5482 26.6663 21.9914 26.6663Z" fill="#0C7238"/>
<path d="M14.4843 16.667H15.9159L17.0775 19.1696L18.3051 16.667H19.6425L17.7999 20.0003L19.6845 23.3336H18.2739L17.0079 20.7136L15.7473 23.3336H14.3157L16.2315 19.9883L14.4843 16.667Z" fill="white"/>
</svg>
