<svg width="24" height="25" viewBox="0 0 24 25" fill="none" xmlns="http://www.w3.org/2000/svg">
<path d="M21 12.5001H18.6361C17.9781 12.5001 17.6491 12.5001 17.3578 12.6298C17.0665 12.7596 16.8463 13.0042 16.4059 13.4935L15.3767 14.6371C15.0154 15.0385 14.8348 15.2392 14.6057 15.2342C14.3766 15.2293 14.2049 15.0212 13.8616 14.605L10.3334 10.3284C10.0133 9.94041 9.85321 9.7464 9.63599 9.73335C9.41877 9.7203 9.23663 9.89376 8.87237 10.2407L7.36897 11.6725C6.93986 12.0812 6.7253 12.2855 6.45709 12.3928C6.18887 12.5001 5.89258 12.5001 5.3 12.5001H3" stroke="#1C274C" strokeWidth="1.5" strokeLinecap="round"/>
<path d="M8.96173 19.8707L9.43571 19.2895L9.43571 19.2895L8.96173 19.8707ZM12 5.99877L11.4509 6.50966C11.5928 6.66215 11.7917 6.74877 12 6.74877C12.2083 6.74877 12.4072 6.66215 12.5491 6.50966L12 5.99877ZM15.0383 19.8707L15.5123 20.452L15.0383 19.8707ZM9.43571 19.2895C7.98585 18.1072 6.29293 16.5568 4.96881 14.8598C3.63045 13.1445 2.75 11.3821 2.75 9.76044H1.25C1.25 11.8862 2.37926 13.9793 3.7862 15.7825C5.20736 17.6039 6.99532 19.2349 8.48775 20.452L9.43571 19.2895ZM2.75 9.76044C2.75 7.03057 4.0079 5.20454 5.60065 4.54191C7.17297 3.88778 9.35285 4.25479 11.4509 6.50966L12.5491 5.48787C10.1473 2.90661 7.32719 2.19899 5.02447 3.15699C2.74218 4.10649 1.25 6.57936 1.25 9.76044H2.75ZM15.5123 20.452C17.0047 19.235 18.7926 17.6039 20.2138 15.7825C21.6207 13.9794 22.75 11.8862 22.75 9.7604H21.25C21.25 11.3821 20.3695 13.1445 19.0312 14.8598C17.7071 16.5568 16.0142 18.1072 14.5643 19.2895L15.5123 20.452ZM22.75 9.7604C22.75 6.57926 21.2578 4.10639 18.9755 3.15691C16.6728 2.19894 13.8527 2.90662 11.4509 5.48787L12.5491 6.50966C14.6472 4.25479 16.827 3.88774 18.3994 4.54184C19.9921 5.20444 21.25 7.03045 21.25 9.7604H22.75ZM8.48775 20.452C9.7587 21.4884 10.641 22.25 12 22.25L12 20.75C11.2785 20.75 10.8287 20.4254 9.43571 19.2895L8.48775 20.452ZM14.5643 19.2895C13.1713 20.4254 12.7216 20.75 12 20.75L12 22.25C13.359 22.25 14.2413 21.4884 15.5123 20.452L14.5643 19.2895Z" fill="#1C274C"/>
</svg>
