<svg width="24" height="25" viewBox="0 0 24 25" fill="none" xmlns="http://www.w3.org/2000/svg">
<path d="M22 22.5L2 22.5" stroke="#1C274C" strokeWidth="1.5" strokeLinecap="round"/>
<path d="M17 22.5V6.5C17 4.61438 17 3.67157 16.4142 3.08579C15.8284 2.5 14.8856 2.5 13 2.5H11C9.11438 2.5 8.17157 2.5 7.58579 3.08579C7 3.67157 7 4.61438 7 6.5V22.5" stroke="#1C274C" strokeWidth="1.5"/>
<path d="M21 22.5V9C21 7.59554 21 6.89331 20.6629 6.38886C20.517 6.17048 20.3295 5.98298 20.1111 5.83706C19.6067 5.5 18.9045 5.5 17.5 5.5" stroke="#1C274C" strokeWidth="1.5"/>
<path d="M3 22.5V9C3 7.59554 3 6.89331 3.33706 6.38886C3.48298 6.17048 3.67048 5.98298 3.88886 5.83706C4.39331 5.5 5.09554 5.5 6.5 5.5" stroke="#1C274C" strokeWidth="1.5"/>
<path d="M12 22.5V19.5" stroke="#1C274C" strokeWidth="1.5" strokeLinecap="round"/>
<path d="M10 12.5H14" stroke="#1C274C" strokeWidth="1.5" strokeLinecap="round"/>
<path d="M5.5 11.5H7" stroke="#1C274C" strokeWidth="1.5" strokeLinecap="round"/>
<path d="M5.5 14.5H7" stroke="#1C274C" strokeWidth="1.5" strokeLinecap="round"/>
<path d="M17 11.5H18.5" stroke="#1C274C" strokeWidth="1.5" strokeLinecap="round"/>
<path d="M17 14.5H18.5" stroke="#1C274C" strokeWidth="1.5" strokeLinecap="round"/>
<path d="M5.5 8.5H7" stroke="#1C274C" strokeWidth="1.5" strokeLinecap="round"/>
<path d="M17 8.5H18.5" stroke="#1C274C" strokeWidth="1.5" strokeLinecap="round"/>
<path d="M10 15.5H14" stroke="#1C274C" strokeWidth="1.5" strokeLinecap="round"/>
<path d="M12 9.5V5.5" stroke="#1C274C" strokeWidth="1.5" strokeLinecap="round" strokeLinejoin="round"/>
<path d="M14 7.5L10 7.5" stroke="#1C274C" strokeWidth="1.5" strokeLinecap="round" strokeLinejoin="round"/>
</svg>
