<svg width="24" height="25" viewBox="0 0 24 25" fill="none" xmlns="http://www.w3.org/2000/svg">
<path d="M12 3.75C12.4142 3.75 12.75 4.08579 12.75 4.5C12.75 4.91421 12.4142 5.25 12 5.25C7.99594 5.25 4.75 8.49594 4.75 12.5C4.75 16.5041 7.99594 19.75 12 19.75C12.4142 19.75 12.75 20.0858 12.75 20.5C12.75 20.9142 12.4142 21.25 12 21.25C7.16751 21.25 3.25 17.3325 3.25 12.5C3.25 7.66751 7.16751 3.75 12 3.75Z" fill="black"/>
<path d="M16.4697 10.0303C16.1768 9.73744 16.1768 9.26256 16.4697 8.96967C16.7626 8.67678 17.2374 8.67678 17.5303 8.96967L20.5303 11.9697C20.8232 12.2626 20.8232 12.7374 20.5303 13.0303L17.5303 16.0303C17.2374 16.3232 16.7626 16.3232 16.4697 16.0303C16.1768 15.7374 16.1768 15.2626 16.4697 14.9697L18.1893 13.25H10C9.58579 13.25 9.25 12.9142 9.25 12.5C9.25 12.0858 9.58579 11.75 10 11.75H18.1893L16.4697 10.0303Z" fill="black"/>
</svg>
