<svg width="106" height="53" viewBox="0 0 106 53" fill="none" xmlns="http://www.w3.org/2000/svg">
<path d="M43.9478 6.64802L52.2289 9.19462L52.6425 7.81538L43.7709 5.08725L39.8281 7.39135L40.5395 8.63977L43.9478 6.64802Z" fill="black"/>
<path d="M43.9478 9.19165L52.2289 11.7382L52.6425 10.359L43.7709 7.63088L39.8281 9.93498L40.5395 11.1834L43.9478 9.19165Z" fill="black"/>
<path d="M43.9478 11.7353L52.2289 14.2819L52.6425 12.9026L43.7709 10.1745L39.8281 12.4786L40.5395 13.727L43.9478 11.7353Z" fill="black"/>
<path d="M43.9478 14.2789L52.2289 16.8255L52.6425 15.4463L43.7709 12.7181L39.8281 15.0222L40.5395 16.2706L43.9478 14.2789Z" fill="black"/>
<path d="M43.9478 16.8225L52.2289 19.3691L52.6425 17.9899L43.7709 15.2618L39.8281 17.5658L40.5395 18.8142L43.9478 16.8225Z" fill="black"/>
<path d="M43.9478 19.3662L52.2289 21.9127L52.6425 20.5335L43.7709 17.8054L39.8281 20.1094L40.5395 21.3578L43.9478 19.3662Z" fill="black"/>
<path d="M43.9478 21.9098L52.2289 24.4564L52.6425 23.0771L43.7709 20.349L39.8281 22.653L40.5395 23.9014L43.9478 21.9098Z" fill="black"/>
<path d="M43.9478 26.4451L52.2289 27L52.6425 25.6208L43.7709 22.8926L39.8281 25.1967L40.5395 26.4451H43.9478Z" fill="black"/>
<path d="M57.475 6.64802L65.7561 9.19462L66.1696 7.81538L57.298 5.08725L53.3553 7.39135L54.0667 8.63977L57.475 6.64802Z" fill="black"/>
<path d="M57.475 4.1044L65.7561 6.65099L66.1696 5.27175L57.298 2.54363L53.3553 4.84773L54.0667 6.09614L57.475 4.1044Z" fill="black"/>
<path d="M57.475 1.56077L65.7561 4.10736L66.1696 2.72812L57.298 0L53.3553 2.3041L54.0667 3.55251L57.475 1.56077Z" fill="black"/>
<path d="M57.475 9.19165L65.7561 11.7382L66.1696 10.359L57.298 7.63088L53.3553 9.93498L54.0667 11.1834L57.475 9.19165Z" fill="black"/>
<path d="M57.475 11.7353L65.7561 14.2819L66.1696 12.9026L57.298 10.1745L53.3553 12.4786L54.0667 13.727L57.475 11.7353Z" fill="black"/>
<path d="M57.475 14.2789L65.7561 16.8255L66.1696 15.4463L57.298 12.7181L53.3553 15.0222L54.0667 16.2706L57.475 14.2789Z" fill="black"/>
<path d="M57.475 16.8225L65.7561 19.3691L66.1696 17.9899L57.298 15.2618L53.3553 17.5658L54.0667 18.8142L57.475 16.8225Z" fill="black"/>
<path d="M57.475 19.3662L65.7561 21.9127L66.1696 20.5335L57.298 17.8054L53.3553 20.1094L54.0667 21.3578L57.475 19.3662Z" fill="black"/>
<path d="M57.475 21.9098L65.7561 24.4564L66.1696 23.0771L57.298 20.349L53.3553 22.653L54.0667 23.9014L57.475 21.9098Z" fill="black"/>
<path d="M57.475 26.5299L65.7561 27L66.1696 25.6208L57.298 22.8926L53.3553 25.1967L54.0667 26.4451L57.475 26.5299Z" fill="black"/>
<path d="M13.2388 41.5237C17.7401 41.5237 20.4042 43.7895 20.4042 47.0316V47.6947H8.33333C8.5538 50.0526 10.6115 51.3053 13.2388 51.3053C16.2703 51.3053 17.6666 50.1816 18.0157 48.8737H20.2939C19.8714 51.1395 17.6666 53 13.2388 53C9.12335 53 6 50.9184 6 47.0684C6 43.6053 9.12335 41.5237 13.2388 41.5237ZM13.2388 43.0158C10.7218 43.0158 8.7559 44.1947 8.38845 46.2763H18.1627C17.8871 44.4895 16.2336 43.0158 13.2388 43.0158Z" fill="black"/>
<path d="M33.195 46.2947V48.2105H23.2003V46.2947H33.195Z" fill="black"/>
<path d="M47.6474 52.6868H37.2668V39H47.6474C50.8075 39 52.5161 40.0684 52.5161 42.2789C52.5161 43.8816 51.4505 45.2816 49.1356 45.5211V45.5395C51.7629 45.7974 53.1959 47.1789 53.1959 49.0579C53.1959 51.5079 51.2852 52.6868 47.6474 52.6868ZM39.839 40.9158V44.8395H46.7471C49.0805 44.8395 50.0909 44.1026 50.0909 42.7947C50.0909 41.9658 49.7786 40.9158 47.3718 40.9158H39.839ZM39.839 46.4974V50.7711H47.2983C49.1907 50.7711 50.5503 50.3842 50.5503 48.7079C50.5503 47.1421 49.1172 46.4974 46.6553 46.4974H39.839Z" fill="black"/>
<path d="M58.6423 52.6868H56.0701V39H58.6423V52.6868Z" fill="black"/>
<path d="M65.1702 52.6868H62.7266V39H65.4274L76.9838 49.7579L77.0757 49.8684V39H79.5192V52.6868H76.8368L65.2437 41.9289L65.1702 41.8368V52.6868Z" fill="black"/>
<path d="M100 52.6868H97.1522L95.2966 49.15H86.4042L84.5486 52.6868H81.7008L89.1785 39H92.4856L100 52.6868ZM90.7218 40.9158L87.3229 47.3816H94.378L90.9974 40.9158L90.8688 40.6395H90.8504L90.7218 40.9158Z" fill="black"/>
</svg>
