<svg width="16" height="16" viewBox="0 0 16 16" fill="none" xmlns="http://www.w3.org/2000/svg">
<path fillRule="evenodd" clipRule="evenodd" d="M8.00002 14.5C6.9875 14.5 6.16669 13.6792 6.16669 12.6667C6.16669 11.6541 6.9875 10.8333 8.00002 10.8333C9.01254 10.8333 9.83335 11.6541 9.83335 12.6667C9.83335 13.6792 9.01254 14.5 8.00002 14.5ZM7.16669 12.6667C7.16669 13.1269 7.53978 13.5 8.00002 13.5C8.46026 13.5 8.83335 13.1269 8.83335 12.6667C8.83335 12.2064 8.46026 11.8333 8.00002 11.8333C7.53978 11.8333 7.16669 12.2064 7.16669 12.6667Z" fill="#C3C3C3"/>
<path fillRule="evenodd" clipRule="evenodd" d="M8.00002 9.83333C6.9875 9.83333 6.16669 9.01252 6.16669 8C6.16669 6.98748 6.9875 6.16667 8.00002 6.16667C9.01254 6.16667 9.83335 6.98748 9.83335 8C9.83335 9.01252 9.01254 9.83333 8.00002 9.83333ZM7.16669 8C7.16669 8.46024 7.53978 8.83333 8.00002 8.83333C8.46026 8.83333 8.83335 8.46024 8.83335 8C8.83335 7.53976 8.46026 7.16667 8.00002 7.16667C7.53978 7.16667 7.16669 7.53976 7.16669 8Z" fill="#C3C3C3"/>
<path fillRule="evenodd" clipRule="evenodd" d="M6.16669 3.33333C6.16669 4.34586 6.9875 5.16667 8.00002 5.16667C9.01254 5.16667 9.83335 4.34586 9.83335 3.33333C9.83335 2.32081 9.01254 1.5 8.00002 1.5C6.9875 1.5 6.16669 2.32081 6.16669 3.33333ZM8.00002 4.16667C7.53978 4.16667 7.16669 3.79357 7.16669 3.33333C7.16669 2.8731 7.53978 2.5 8.00002 2.5C8.46026 2.5 8.83335 2.8731 8.83335 3.33333C8.83335 3.79357 8.46026 4.16667 8.00002 4.16667Z" fill="#C3C3C3"/>
</svg>
