<svg width="18" height="19" viewBox="0 0 18 19" fill="none" xmlns="http://www.w3.org/2000/svg">
<path d="M7.35891 6.97473C7.11483 6.73065 6.7191 6.73065 6.47502 6.97473C6.23095 7.21881 6.23095 7.61454 6.47502 7.85862L8.11642 9.50002L6.47504 11.1414C6.23096 11.3855 6.23096 11.7812 6.47504 12.0253C6.71912 12.2694 7.11485 12.2694 7.35893 12.0253L9.00031 10.3839L10.6417 12.0253C10.8858 12.2693 11.2815 12.2693 11.5256 12.0253C11.7696 11.7812 11.7696 11.3855 11.5256 11.1414L9.88419 9.50002L11.5256 7.85863C11.7697 7.61456 11.7697 7.21883 11.5256 6.97475C11.2815 6.73067 10.8858 6.73067 10.6417 6.97475L9.00031 8.61613L7.35891 6.97473Z" fill="#0A0A0A"/>
<path fillRule="evenodd" clipRule="evenodd" d="M9.00033 0.541687C4.05277 0.541687 0.0419922 4.55247 0.0419922 9.50002C0.0419922 14.4476 4.05277 18.4584 9.00033 18.4584C13.9479 18.4584 17.9587 14.4476 17.9587 9.50002C17.9587 4.55247 13.9479 0.541687 9.00033 0.541687ZM1.29199 9.50002C1.29199 5.24283 4.74313 1.79169 9.00033 1.79169C13.2575 1.79169 16.7087 5.24283 16.7087 9.50002C16.7087 13.7572 13.2575 17.2084 9.00033 17.2084C4.74313 17.2084 1.29199 13.7572 1.29199 9.50002Z" fill="#0A0A0A"/>
</svg>
