<svg width="24" height="25" viewBox="0 0 24 25" fill="none" xmlns="http://www.w3.org/2000/svg">
<path d="M3 8.5C3 5.67157 3 4.25736 3.87868 3.37868C4.75736 2.5 6.17157 2.5 9 2.5H15C17.8284 2.5 19.2426 2.5 20.1213 3.37868C21 4.25736 21 5.67157 21 8.5V16.5C21 19.3284 21 20.7426 20.1213 21.6213C19.2426 22.5 17.8284 22.5 15 22.5H9C6.17157 22.5 4.75736 22.5 3.87868 21.6213C3 20.7426 3 19.3284 3 16.5V8.5Z" stroke="#121212" strokeWidth="1.5"/>
<path d="M8 3V22.5" stroke="#121212" strokeWidth="1.5" strokeLinecap="round"/>
<path d="M2 12.5H4" stroke="#121212" strokeWidth="1.5" strokeLinecap="round"/>
<path d="M2 16.5H4" stroke="#121212" strokeWidth="1.5" strokeLinecap="round"/>
<path d="M2 8.5H4" stroke="#121212" strokeWidth="1.5" strokeLinecap="round"/>
<path d="M11.5 7H16.5" stroke="#121212" strokeWidth="1.5" strokeLinecap="round"/>
<path d="M11.5 10.5H16.5" stroke="#121212" strokeWidth="1.5" strokeLinecap="round"/>
</svg>
