<svg width="16" height="16" viewBox="0 0 16 16" fill="none" xmlns="http://www.w3.org/2000/svg">
<g clip-path="url(#clip0_680_10613)">
<path fillRule="evenodd" clipRule="evenodd" d="M7.96333 0.833496H8.0365C8.94823 0.833483 9.68311 0.833472 10.2611 0.911179C10.8612 0.991856 11.3664 1.16445 11.7677 1.56573C12.261 2.05905 12.4136 2.71694 12.4674 3.53311C12.6307 3.54402 12.7841 3.55853 12.9278 3.57785C13.5278 3.65852 14.0331 3.83112 14.4344 4.2324C14.8356 4.63367 15.0082 5.13892 15.0889 5.739C15.1666 6.31697 15.1666 7.05186 15.1666 7.96358V8.03674C15.1666 8.94847 15.1666 9.68335 15.0889 10.2613C15.0082 10.8614 14.8356 11.3667 14.4344 11.7679C13.941 12.2612 13.2831 12.4138 12.467 12.4676C12.4561 12.631 12.4416 12.7843 12.4222 12.928C12.3416 13.5281 12.169 14.0333 11.7677 14.4346C11.3664 14.8359 10.8612 15.0085 10.2611 15.0891C9.68311 15.1669 8.94823 15.1668 8.0365 15.1668H7.96334C7.05161 15.1668 6.31673 15.1669 5.73875 15.0891C5.13868 15.0085 4.63343 14.8359 4.23215 14.4346C3.83087 14.0333 3.65828 13.5281 3.5776 12.928C3.55829 12.7843 3.54377 12.631 3.53287 12.4676C2.7167 12.4138 2.0588 12.2612 1.56549 11.7679C1.16421 11.3667 0.991612 10.8614 0.910935 10.2613C0.833227 9.68335 0.833239 8.94847 0.833252 8.03675V7.96358C0.833239 7.05185 0.833227 6.31697 0.910935 5.739C0.991612 5.13892 1.16421 4.63367 1.56549 4.2324C1.96676 3.83112 2.47201 3.65852 3.07209 3.57785C3.21574 3.55853 3.3691 3.54402 3.53245 3.53311C3.58627 2.71694 3.73883 2.05905 4.23215 1.56573C4.63343 1.16445 5.13868 0.991856 5.73875 0.911179C6.31673 0.833472 7.05161 0.833483 7.96333 0.833496ZM4.53801 3.50213C4.77596 3.50016 5.02867 3.50016 5.29667 3.50016H10.7032C10.9712 3.50016 11.2239 3.50016 11.4618 3.50213C11.4072 2.82156 11.2843 2.49651 11.0606 2.27284C10.8761 2.08833 10.617 1.96803 10.1278 1.90226C9.62427 1.83456 8.95686 1.8335 7.99992 1.8335C7.04297 1.8335 6.37557 1.83456 5.872 1.90226C5.38281 1.96803 5.12377 2.08833 4.93926 2.27284C4.71558 2.49651 4.59264 2.82156 4.53801 3.50213ZM3.50188 11.4621C3.49991 11.2241 3.49991 10.9714 3.49992 10.7034L3.49992 8.62575C3.39685 8.6675 3.29847 8.7096 3.20472 8.75169C2.9528 8.8648 2.65689 8.75227 2.54379 8.50036C2.43068 8.24844 2.54321 7.95253 2.79512 7.83943C3.94296 7.32406 5.65358 6.8335 7.99992 6.8335C10.3463 6.8335 12.0569 7.32406 13.2047 7.83943C13.4566 7.95253 13.5692 8.24844 13.4561 8.50036C13.3429 8.75227 13.047 8.8648 12.7951 8.75169C12.7014 8.7096 12.603 8.6675 12.4999 8.62575V10.7034C12.4999 10.9714 12.4999 11.2241 12.498 11.4621C13.1785 11.4074 13.5036 11.2845 13.7272 11.0608C13.9118 10.8763 14.0321 10.6173 14.0978 10.1281C14.1655 9.62452 14.1666 8.95711 14.1666 8.00016C14.1666 7.04322 14.1655 6.37581 14.0978 5.87224C14.0321 5.38306 13.9118 5.12401 13.7272 4.9395C13.5427 4.75499 13.2837 4.6347 12.7945 4.56893C12.2909 4.50123 11.6235 4.50016 10.6666 4.50016H5.33325C4.37631 4.50016 3.7089 4.50123 3.20533 4.56893C2.71615 4.6347 2.4571 4.75499 2.27259 4.9395C2.08808 5.12401 1.96779 5.38306 1.90202 5.87224C1.83431 6.37581 1.83325 7.04322 1.83325 8.00016C1.83325 8.95711 1.83431 9.62452 1.90202 10.1281C1.96779 10.6173 2.08808 10.8763 2.27259 11.0608C2.49627 11.2845 2.82131 11.4074 3.50188 11.4621ZM11.4999 8.28468C10.582 8.02525 9.42261 7.8335 7.99992 7.8335C6.57723 7.8335 5.41788 8.02525 4.49992 8.28468V10.6668C4.49992 11.6238 4.50098 12.2912 4.56868 12.7947C4.63445 13.2839 4.75475 13.543 4.93926 13.7275C5.12377 13.912 5.38282 14.0323 5.872 14.0981C6.37557 14.1658 7.04297 14.1668 7.99992 14.1668C8.95686 14.1668 9.62427 14.1658 10.1278 14.0981C10.617 14.0323 10.8761 13.912 11.0606 13.7275C11.2451 13.543 11.3654 13.2839 11.4312 12.7947C11.4989 12.2912 11.4999 11.6238 11.4999 10.6668V8.28468Z" fill="#0A0A0A"/>
</g>
<defs>
<clipPath id="clip0_680_10613">
<rect width="16" height="16" fill="white"/>
</clipPath>
</defs>
</svg>
