<svg width="24" height="25" viewBox="0 0 24 25" fill="none" xmlns="http://www.w3.org/2000/svg">
<path fillRule="evenodd" clipRule="evenodd" d="M11.9995 8.75C9.92845 8.75 8.24951 10.4289 8.24951 12.5C8.24951 14.5711 9.92845 16.25 11.9995 16.25C14.0706 16.25 15.7495 14.5711 15.7495 12.5C15.7495 10.4289 14.0706 8.75 11.9995 8.75ZM9.74951 12.5C9.74951 11.2574 10.7569 10.25 11.9995 10.25C13.2422 10.25 14.2495 11.2574 14.2495 12.5C14.2495 13.7426 13.2422 14.75 11.9995 14.75C10.7569 14.75 9.74951 13.7426 9.74951 12.5Z" fill="#121212"/>
<path fillRule="evenodd" clipRule="evenodd" d="M11.9743 1.75C11.5298 1.74999 11.1588 1.74999 10.8541 1.77077C10.537 1.79241 10.2375 1.83905 9.94712 1.95933C9.2733 2.23844 8.73794 2.77379 8.45883 3.44762C8.31353 3.79842 8.27418 4.16812 8.25915 4.56996C8.24707 4.89299 8.08405 5.16251 7.84346 5.30141C7.60288 5.44031 7.28796 5.44673 7.00218 5.29568C6.64665 5.10777 6.3068 4.95699 5.93034 4.90743C5.20724 4.81223 4.47593 5.00819 3.8973 5.45219C3.64794 5.64353 3.45778 5.8796 3.2805 6.1434C3.11019 6.39681 2.92468 6.71815 2.70245 7.10307L2.6772 7.14681C2.45496 7.53172 2.26944 7.85304 2.13513 8.12723C1.99532 8.41267 1.88595 8.69539 1.84492 9.00701C1.74973 9.73012 1.94568 10.4614 2.38968 11.0401C2.62079 11.3412 2.92124 11.5602 3.26168 11.7741C3.53546 11.9461 3.68739 12.2221 3.68737 12.5C3.68736 12.7778 3.53543 13.0538 3.26169 13.2258C2.9212 13.4397 2.62072 13.6587 2.38958 13.9599C1.94558 14.5385 1.74963 15.2698 1.84483 15.9929C1.88585 16.3045 1.99522 16.5873 2.13503 16.8727C2.26934 17.1469 2.45486 17.4682 2.67709 17.8531L2.70235 17.8969C2.92458 18.2818 3.11009 18.6031 3.2804 18.8565C3.45769 19.1203 3.64784 19.3564 3.89721 19.5477C4.47583 19.9917 5.20714 20.1877 5.93025 20.0925C6.30668 20.0429 6.64651 19.8922 7.00202 19.7043C7.28784 19.5532 7.6028 19.5596 7.84341 19.6986C8.08403 19.8375 8.24707 20.107 8.25915 20.4301C8.27418 20.8319 8.31354 21.2016 8.45883 21.5524C8.73794 22.2262 9.2733 22.7616 9.94712 23.0407C10.2375 23.161 10.537 23.2076 10.8541 23.2292C11.1587 23.25 11.5298 23.25 11.9742 23.25H12.0248C12.4692 23.25 12.8403 23.25 13.1449 23.2292C13.462 23.2076 13.7615 23.161 14.0519 23.0407C14.7257 22.7616 15.2611 22.2262 15.5402 21.5524C15.6855 21.2016 15.7248 20.8319 15.7399 20.43C15.7519 20.107 15.9149 19.8375 16.1555 19.6985C16.3961 19.5596 16.7111 19.5532 16.9969 19.7042C17.3524 19.8921 17.6922 20.0429 18.0687 20.0924C18.7918 20.1876 19.5231 19.9917 20.1017 19.5477C20.3511 19.3563 20.5412 19.1203 20.7185 18.8565C20.8888 18.6031 21.0743 18.2818 21.2965 17.8969L21.3218 17.8531C21.544 17.4682 21.7296 17.1468 21.8639 16.8726C22.0037 16.5872 22.1131 16.3045 22.1541 15.9929C22.2493 15.2697 22.0533 14.5384 21.6093 13.9598C21.3782 13.6586 21.0777 13.4397 20.7373 13.2258C20.4635 13.0538 20.3116 12.7778 20.3116 12.4999C20.3116 12.2221 20.4636 11.9462 20.7373 11.7742C21.0778 11.5603 21.3783 11.3414 21.6094 11.0401C22.0534 10.4615 22.2494 9.73019 22.1542 9.00708C22.1132 8.69546 22.0038 8.41274 21.864 8.1273C21.7297 7.85313 21.5442 7.53183 21.322 7.14695L21.2967 7.10318C21.0745 6.71825 20.8889 6.39688 20.7186 6.14347C20.5413 5.87967 20.3512 5.6436 20.1018 5.45225C19.5232 5.00826 18.7919 4.8123 18.0688 4.9075C17.6923 4.95706 17.3525 5.10782 16.997 5.29572C16.7112 5.44679 16.3962 5.44036 16.1556 5.30144C15.915 5.16253 15.7519 4.89297 15.7399 4.56991C15.7248 4.16808 15.6855 3.7984 15.5402 3.44762C15.2611 2.77379 14.7257 2.23844 14.0519 1.95933C13.7615 1.83905 13.462 1.79241 13.1449 1.77077C12.8403 1.74999 12.4692 1.74999 12.0248 1.75H11.9743ZM10.5211 3.34515C10.5983 3.31319 10.7155 3.28372 10.9562 3.26729C11.2037 3.25041 11.5233 3.25 11.9995 3.25C12.4757 3.25 12.7953 3.25041 13.0428 3.26729C13.2835 3.28372 13.4007 3.31319 13.4779 3.34515C13.7841 3.47202 14.0275 3.71536 14.1544 4.02165C14.1944 4.11826 14.2275 4.26887 14.2409 4.62597C14.2705 5.41835 14.6795 6.18129 15.4056 6.60048C16.1317 7.01968 16.9969 6.9924 17.6979 6.62188C18.0138 6.4549 18.1609 6.40832 18.2645 6.39467C18.5932 6.3514 18.9256 6.44047 19.1887 6.64228C19.2549 6.69312 19.339 6.77989 19.4736 6.98016C19.612 7.18603 19.7721 7.4626 20.0102 7.875C20.2483 8.28741 20.4078 8.56438 20.5169 8.78713C20.623 9.00382 20.6561 9.12007 20.667 9.20287C20.7103 9.53155 20.6212 9.86397 20.4194 10.127C20.3557 10.21 20.2419 10.314 19.9392 10.5041C19.2679 10.926 18.8117 11.6616 18.8116 12.4999C18.8116 13.3383 19.2678 14.074 19.9392 14.4959C20.2418 14.686 20.3556 14.79 20.4193 14.873C20.6211 15.136 20.7102 15.4684 20.6669 15.7971C20.656 15.8799 20.6229 15.9961 20.5168 16.2128C20.4077 16.4355 20.2482 16.7125 20.0101 17.1249C19.772 17.5373 19.6119 17.8139 19.4735 18.0198C19.3389 18.22 19.2548 18.3068 19.1886 18.3576C18.9255 18.5595 18.5931 18.6485 18.2645 18.6053C18.1608 18.5916 18.0138 18.545 17.6978 18.3781C16.9968 18.0075 16.1315 17.9803 15.4054 18.3995C14.6795 18.8187 14.2705 19.5816 14.2409 20.374C14.2275 20.7311 14.1944 20.8817 14.1544 20.9784C14.0275 21.2846 13.7841 21.528 13.4779 21.6549C13.4007 21.6868 13.2835 21.7163 13.0428 21.7327C12.7953 21.7496 12.4757 21.75 11.9995 21.75C11.5233 21.75 11.2037 21.7496 10.9562 21.7327C10.7155 21.7163 10.5983 21.6868 10.5211 21.6549C10.2149 21.528 9.97152 21.2846 9.84465 20.9784C9.80463 20.8817 9.77146 20.7311 9.75811 20.374C9.72847 19.5817 9.31948 18.8187 8.59341 18.3995C7.86735 17.9803 7.00213 18.0076 6.30109 18.3781C5.98516 18.5451 5.83814 18.5917 5.73446 18.6053C5.40577 18.6486 5.07336 18.5595 4.81035 18.3577C4.7441 18.3069 4.65996 18.2201 4.52537 18.0198C4.38702 17.814 4.22687 17.5374 3.98877 17.125C3.75067 16.7126 3.59122 16.4356 3.48211 16.2129C3.37597 15.9962 3.34289 15.8799 3.33199 15.7971C3.28872 15.4684 3.37779 15.136 3.57961 14.873C3.64327 14.7901 3.75712 14.686 4.05971 14.4959C4.7311 14.0741 5.18733 13.3384 5.18737 12.5001C5.18742 11.6616 4.73117 10.9259 4.05972 10.504C3.7572 10.3139 3.64336 10.2099 3.57971 10.1269C3.37789 9.8639 3.28882 9.53149 3.33209 9.2028C3.34299 9.12001 3.37607 9.00375 3.48221 8.78707C3.59132 8.56431 3.75076 8.28734 3.98887 7.87493C4.22697 7.46253 4.38712 7.18596 4.52547 6.98009C4.66006 6.77983 4.74419 6.69305 4.81045 6.64222C5.07346 6.4404 5.40587 6.35133 5.73456 6.3946C5.83824 6.40825 5.98527 6.45483 6.30124 6.62184C7.00225 6.99235 7.86742 7.01962 8.59345 6.60045C9.31949 6.18128 9.72847 5.41837 9.7581 4.62602C9.77146 4.26889 9.80463 4.11827 9.84465 4.02165C9.97152 3.71536 10.2149 3.47202 10.5211 3.34515Z" fill="#121212"/>
</svg>
