<svg width="21" height="20" viewBox="0 0 21 20" fill="none" xmlns="http://www.w3.org/2000/svg">
<path d="M19.8346 9.11291H19.7181L16.7639 9.12004L16.6208 9.12205C16.1676 9.15784 15.8096 9.53896 15.8105 10.003C15.8105 10.4905 16.2053 10.8848 16.6925 10.8868H19.8563C20.311 10.847 20.6681 10.4648 20.667 9.99938C20.6659 9.52778 20.2995 9.14175 19.8346 9.11291ZM15.5541 6.36551L15.5561 6.3635L17.6797 4.24198L17.7916 4.12795C18.085 3.78015 18.0654 3.25622 17.7376 2.92806C17.4043 2.59591 16.8713 2.58181 16.5215 2.89026L16.4402 2.97299L14.3564 5.0677L14.2565 5.16871C13.9616 5.51543 13.9772 6.03644 14.3055 6.36503C14.6501 6.70974 15.2092 6.70975 15.5541 6.36551ZM10.6668 0C10.1948 0 9.80808 0.367942 9.77885 0.8318L9.77931 0.948921L9.78782 3.9024V4.04524C9.82558 4.50011 10.2062 4.85737 10.6691 4.85737C11.1572 4.85737 11.5524 4.46216 11.5524 3.97508V3.97105L11.554 0.970657L11.5543 0.810777C11.5139 0.355475 11.1312 0 10.6668 0ZM7.03006 5.10986L4.90941 2.98834L4.79551 2.87478C4.44655 2.58259 3.92381 2.60025 3.5956 2.92885C3.26181 3.26256 3.24927 3.79706 3.55676 4.14484L3.63893 4.22757L5.73391 6.30974L5.83527 6.41076C6.18314 6.7065 6.70495 6.68884 7.03225 6.36226C7.37765 6.01554 7.37765 5.45828 7.03333 5.11343L7.03006 5.10986ZM4.71176 10.8773C5.16655 10.842 5.52404 10.4609 5.52404 9.99702C5.52295 9.50793 5.12881 9.11474 4.64168 9.11319L1.47677 9.11304C1.02242 9.15285 0.666043 9.53506 0.666994 9.99889C0.666994 10.4719 1.03405 10.857 1.49892 10.8863H1.61544L4.56956 10.8767L4.71176 10.8773ZM5.77904 13.6328L5.77657 13.6363L3.65389 15.7583L3.54139 15.8704C3.24892 16.2197 3.26718 16.743 3.5954 17.0702C3.92966 17.4033 4.46167 17.4176 4.81155 17.1101L4.89373 17.0267L6.9771 14.932L7.07737 14.8316C7.37232 14.4843 7.35623 13.9614 7.02847 13.6348C6.68215 13.2901 6.12445 13.2901 5.77904 13.6328ZM11.5447 15.9553C11.5083 15.501 11.1267 15.1431 10.6639 15.1431C10.1753 15.1431 9.78055 15.5383 9.78055 16.0254V16.029L9.77901 19.0299L9.77947 19.1899C9.81986 19.6432 10.2015 20 10.6668 20C11.1388 20 11.5239 19.6316 11.5541 19.1682V19.0511L11.5445 16.0976L11.5447 15.9553ZM17.6942 15.7731L15.5987 13.6909L15.4984 13.5899C15.151 13.2941 14.6288 13.3102 14.301 13.6388C13.956 13.9835 13.9556 14.5423 14.3005 14.8877L14.3036 14.8912L16.4238 17.0132L16.5377 17.1243C16.8876 17.4187 17.41 17.4004 17.7376 17.0723C18.0714 16.7372 18.084 16.2045 17.7774 15.8558L17.6942 15.7731Z" fill="#93A3B2"/>
</svg>
