<svg width="24" height="25" viewBox="0 0 24 25" fill="none" xmlns="http://www.w3.org/2000/svg">
<path d="M17.0955 10.5L18.396 11.8006M13.896 13.6994L15.1966 15M10.6868 16.9087L11.9873 18.2093M5.57866 21.0576L5.96229 20.6739C6.39492 20.2413 7.00076 20.0288 7.60886 20.0964L8.40799 20.1851C9.32013 20.2865 10.2289 19.9677 10.8778 19.3188L19.8202 10.3764C21.3933 8.80334 21.3933 6.25288 19.8202 4.67981C18.2471 3.10673 15.6967 3.10673 14.1236 4.67981L5.18123 13.6222C4.53228 14.2711 4.2135 15.1799 4.31485 16.092L4.40364 16.8911C4.47121 17.4992 4.25869 18.1051 3.82606 18.5377L3.44243 18.9213C2.85252 19.5112 2.85252 20.4677 3.44243 21.0576C4.03233 21.6475 4.98875 21.6475 5.57866 21.0576Z" stroke="#1C274C" strokeWidth="1.5" strokeLinecap="round" strokeLinejoin="round"/>
<path d="M9 15.5L15.5 9" stroke="#1C274C" strokeWidth="1.5" strokeLinecap="round"/>
</svg>
