<svg width="16" height="17" viewBox="0 0 16 17" fill="none" xmlns="http://www.w3.org/2000/svg">
<path d="M7.99994 2.33337C7.34761 2.33337 6.79132 2.75006 6.58516 3.33333C6.49314 3.59369 6.20748 3.73015 5.94712 3.63813C5.68676 3.5461 5.5503 3.26044 5.64232 3.00008C5.98528 2.02976 6.91064 1.33337 7.99994 1.33337C9.08924 1.33337 10.0146 2.02977 10.3576 3.00008C10.4496 3.26044 10.3131 3.5461 10.0528 3.63813C9.7924 3.73015 9.50674 3.59369 9.41472 3.33333C9.20856 2.75006 8.65227 2.33337 7.99994 2.33337Z" fill="#0A0A0A"/>
<path d="M1.83325 4.50004C1.83325 4.2239 2.05711 4.00004 2.33325 4.00004H13.6666C13.9428 4.00004 14.1666 4.2239 14.1666 4.50004C14.1666 4.77618 13.9428 5.00004 13.6666 5.00004H2.33325C2.05711 5.00004 1.83325 4.77618 1.83325 4.50004Z" fill="#0A0A0A"/>
<path d="M3.94331 6.13345C3.92494 5.85792 3.68669 5.64944 3.41116 5.66781C3.13563 5.68618 2.92715 5.92443 2.94552 6.19997L3.25449 10.8345C3.31149 11.6896 3.35753 12.3804 3.46551 12.9224C3.57777 13.486 3.76872 13.9567 4.16312 14.3257C4.55751 14.6946 5.03988 14.8538 5.60965 14.9284C6.15767 15.0001 6.84997 15.0001 7.70703 15H8.29292C9.14997 15.0001 9.84227 15.0001 10.3903 14.9284C10.9601 14.8538 11.4424 14.6946 11.8368 14.3257C12.2312 13.9567 12.4222 13.486 12.5344 12.9224C12.6424 12.3804 12.6885 11.6896 12.7455 10.8345L13.0544 6.19997C13.0728 5.92443 12.8643 5.68618 12.5888 5.66781C12.3133 5.64944 12.075 5.85792 12.0566 6.13345L11.75 10.7329C11.6901 11.6314 11.6474 12.2566 11.5537 12.727C11.4628 13.1833 11.3359 13.4249 11.1536 13.5954C10.9714 13.7659 10.7219 13.8765 10.2606 13.9368C9.78499 13.999 9.15832 14 8.25776 14H7.74218C6.84162 14 6.21495 13.999 5.73935 13.9368C5.27802 13.8765 5.02858 13.7659 4.8463 13.5954C4.66403 13.4249 4.53714 13.1833 4.44624 12.727C4.35253 12.2566 4.30984 11.6314 4.24994 10.7329L3.94331 6.13345Z" fill="#0A0A0A"/>
<path d="M6.28356 7.33586C6.55833 7.30838 6.80335 7.50885 6.83083 7.78362L7.16416 11.117C7.19164 11.3917 6.99117 11.6367 6.7164 11.6642C6.44162 11.6917 6.1966 11.4912 6.16912 11.2165L5.83579 7.88313C5.80831 7.60835 6.00879 7.36333 6.28356 7.33586Z" fill="#0A0A0A"/>
<path d="M10.1642 7.88313C10.1916 7.60835 9.99117 7.36333 9.7164 7.33586C9.44162 7.30838 9.1966 7.50885 9.16912 7.78362L8.83579 11.117C8.80831 11.3917 9.00879 11.6367 9.28356 11.6642C9.55833 11.6917 9.80335 11.4912 9.83083 11.2165L10.1642 7.88313Z" fill="#0A0A0A"/>
</svg>
