<svg width="24" height="25" viewBox="0 0 24 25" fill="none" xmlns="http://www.w3.org/2000/svg">
<path d="M18.357 2.11412C18.5701 1.75893 19.0308 1.64376 19.386 1.85687L19.0001 2.49999C19.386 1.85687 19.3857 1.85667 19.386 1.85687L19.3874 1.85771L19.389 1.85866L19.3927 1.86091L19.4023 1.86683C19.4096 1.8714 19.4189 1.87724 19.4299 1.88436C19.4519 1.89859 19.481 1.91797 19.5162 1.9426C19.5865 1.99182 19.6815 2.06232 19.7928 2.15508C20.0149 2.34016 20.3053 2.61666 20.5946 2.99271C21.1775 3.75044 21.7501 4.90734 21.7501 6.49999C21.7501 8.09265 21.1775 9.24954 20.5946 10.0073C20.3053 10.3833 20.0149 10.6598 19.7928 10.8449C19.6815 10.9377 19.5865 11.0082 19.5162 11.0574C19.481 11.082 19.4519 11.1014 19.4299 11.1156C19.4189 11.1227 19.4096 11.1286 19.4023 11.1332L19.3927 11.1391L19.389 11.1413L19.3874 11.1423C19.3871 11.1425 19.386 11.1431 19.0001 10.5L19.386 11.1431C19.0308 11.3562 18.5701 11.241 18.357 10.8859C18.1448 10.5322 18.2581 10.0739 18.6098 9.85958L18.6153 9.85604C18.6226 9.85133 18.6365 9.84219 18.656 9.82854C18.695 9.80119 18.7563 9.75607 18.8325 9.69258C18.9854 9.56516 19.1949 9.36666 19.4057 9.09271C19.8228 8.55044 20.2501 7.70734 20.2501 6.49999C20.2501 5.29264 19.8228 4.44954 19.4057 3.90727C19.1949 3.63332 18.9854 3.43482 18.8325 3.30741C18.7563 3.24391 18.695 3.19879 18.656 3.17145C18.6365 3.1578 18.6226 3.14866 18.6153 3.14394L18.6098 3.14041C18.2581 2.92613 18.1448 2.46781 18.357 2.11412Z" fill="#2D83B6"/>
<path fillRule="evenodd" clipRule="evenodd" d="M10.0001 1.74999C7.37678 1.74999 5.25013 3.87664 5.25013 6.49999C5.25013 9.12334 7.37678 11.25 10.0001 11.25C12.6235 11.25 14.7501 9.12334 14.7501 6.49999C14.7501 3.87664 12.6235 1.74999 10.0001 1.74999ZM6.75013 6.49999C6.75013 4.70507 8.20521 3.24999 10.0001 3.24999C11.7951 3.24999 13.2501 4.70507 13.2501 6.49999C13.2501 8.29492 11.7951 9.74999 10.0001 9.74999C8.20521 9.74999 6.75013 8.29492 6.75013 6.49999Z" fill="#2D83B6"/>
<path fillRule="evenodd" clipRule="evenodd" d="M10.0001 12.75C7.68658 12.75 5.55506 13.2759 3.97558 14.1643C2.41962 15.0396 1.25013 16.3661 1.25013 18L1.25007 18.1019C1.24894 19.2638 1.24752 20.722 2.52655 21.7635C3.15602 22.2761 4.03661 22.6406 5.22634 22.8815C6.4194 23.1229 7.97436 23.25 10.0001 23.25C12.0259 23.25 13.5809 23.1229 14.7739 22.8815C15.9637 22.6406 16.8443 22.2761 17.4737 21.7635C18.7527 20.722 18.7513 19.2638 18.7502 18.1019L18.7501 18C18.7501 16.3661 17.5807 15.0396 16.0247 14.1643C14.4452 13.2759 12.3137 12.75 10.0001 12.75ZM2.75013 18C2.75013 17.1486 3.37151 16.2251 4.71098 15.4717C6.02693 14.7315 7.89541 14.25 10.0001 14.25C12.1049 14.25 13.9733 14.7315 15.2893 15.4717C16.6288 16.2251 17.2501 17.1486 17.2501 18C17.2501 19.3078 17.2098 20.044 16.5265 20.6004C16.156 20.9021 15.5366 21.1967 14.4763 21.4113C13.4194 21.6252 11.9744 21.75 10.0001 21.75C8.02591 21.75 6.58087 21.6252 5.52393 21.4113C4.46366 21.1967 3.84425 20.9021 3.47372 20.6004C2.79045 20.044 2.75013 19.3078 2.75013 18Z" fill="#2D83B6"/>
<path d="M17.386 3.85687C17.0308 3.64376 16.5701 3.75893 16.357 4.11412L16.6052 5.13761L16.613 5.14293C16.6247 5.15113 16.6469 5.16735 16.6762 5.19178C16.7354 5.24107 16.8199 5.32082 16.9057 5.43227C17.0728 5.64954 17.2501 5.99264 17.2501 6.49999C17.2501 7.00734 17.0728 7.35044 16.9057 7.56771C16.8199 7.67916 16.7354 7.75891 16.6762 7.8082C16.6469 7.83263 16.6247 7.84885 16.613 7.85705L16.6052 7.86237C16.2571 8.07782 16.1457 8.5337 16.357 8.88586C16.5701 9.24105 17.0308 9.35622 17.386 9.14311L17.0001 8.49999C17.386 9.14311 17.3857 9.14331 17.386 9.14311L17.3873 9.1423L17.3888 9.14144L17.3919 9.13951L17.3994 9.13492L17.4186 9.1227C17.4333 9.11321 17.4517 9.10096 17.4732 9.0859C17.5162 9.05582 17.5721 9.01423 17.6365 8.96053C17.7649 8.85357 17.9303 8.69582 18.0946 8.48227C18.4275 8.04954 18.7501 7.39264 18.7501 6.49999C18.7501 5.60734 18.4275 4.95044 18.0946 4.51771C17.9303 4.30416 17.7649 4.14641 17.6365 4.03945C17.5721 3.98576 17.5162 3.94416 17.4732 3.91408C17.4517 3.89902 17.4333 3.88678 17.4186 3.87728L17.3994 3.86507L17.3919 3.86047L17.3888 3.85855L17.3873 3.85768C17.387 3.85748 17.386 3.85687 17.0001 4.49999L17.386 3.85687Z" fill="#2D83B6"/>
</svg>
