<svg width="16" height="17" viewBox="0 0 16 17" fill="none" xmlns="http://www.w3.org/2000/svg">
<path fillRule="evenodd" clipRule="evenodd" d="M7.99998 1.33337C6.25108 1.33337 4.83331 2.75114 4.83331 4.50004C4.83331 6.24894 6.25108 7.66671 7.99998 7.66671C9.74888 7.66671 11.1666 6.24894 11.1666 4.50004C11.1666 2.75114 9.74888 1.33337 7.99998 1.33337ZM5.83331 4.50004C5.83331 3.30342 6.80336 2.33337 7.99998 2.33337C9.1966 2.33337 10.1666 3.30342 10.1666 4.50004C10.1666 5.69666 9.1966 6.66671 7.99998 6.66671C6.80336 6.66671 5.83331 5.69666 5.83331 4.50004Z" fill="#0A0A0A"/>
<path d="M10.1666 12.5C10.1666 12.2239 10.3905 12 10.6666 12H12C12.2761 12 12.5 12.2239 12.5 12.5C12.5 12.7762 12.2761 13 12 13H10.6666C10.3905 13 10.1666 12.7762 10.1666 12.5Z" fill="#0A0A0A"/>
<path fillRule="evenodd" clipRule="evenodd" d="M9.2738 14.9056C8.86604 14.9673 8.43914 15 7.99998 15C6.64042 15 5.38499 14.6862 4.45208 14.1531C3.53331 13.6281 2.83331 12.8266 2.83331 11.8334C2.83331 10.8401 3.53331 10.0386 4.45208 9.51363C5.38499 8.98054 6.64042 8.66671 7.99998 8.66671C9.20297 8.66671 10.3217 8.91228 11.2078 9.33581C11.2494 9.33419 11.2913 9.33337 11.3333 9.33337C13.0822 9.33337 14.5 10.7511 14.5 12.5C14.5 14.2489 13.0822 15.6667 11.3333 15.6667C10.5469 15.6667 9.8275 15.3801 9.2738 14.9056ZM9.16665 12.5C9.16665 11.3034 10.1367 10.3334 11.3333 10.3334C12.5299 10.3334 13.5 11.3034 13.5 12.5C13.5 13.6967 12.5299 14.6667 11.3333 14.6667C10.1367 14.6667 9.16665 13.6967 9.16665 12.5ZM9.61169 9.84182C8.74195 10.4063 8.16665 11.386 8.16665 12.5C8.16665 13.0353 8.29945 13.5396 8.53392 13.9816C8.35917 13.9938 8.18097 14 7.99998 14C6.78221 14 5.70431 13.7169 4.94822 13.2849C4.17798 12.8447 3.83331 12.3129 3.83331 11.8334C3.83331 11.3539 4.17798 10.822 4.94822 10.3819C5.70431 9.94983 6.78221 9.66671 7.99998 9.66671C8.57405 9.66671 9.11779 9.72966 9.61169 9.84182Z" fill="#0A0A0A"/>
</svg>
