<svg width="16" height="16" viewBox="0 0 16 16" fill="none" xmlns="http://www.w3.org/2000/svg">
<path fillRule="evenodd" clipRule="evenodd" d="M4.83331 4.00004C4.83331 2.25114 6.25108 0.833374 7.99998 0.833374C9.74888 0.833374 11.1666 2.25114 11.1666 4.00004C11.1666 5.74894 9.74888 7.16671 7.99998 7.16671C6.25108 7.16671 4.83331 5.74894 4.83331 4.00004ZM7.99998 1.83337C6.80336 1.83337 5.83331 2.80342 5.83331 4.00004C5.83331 5.19666 6.80336 6.16671 7.99998 6.16671C9.1966 6.16671 10.1666 5.19666 10.1666 4.00004C10.1666 2.80342 9.1966 1.83337 7.99998 1.83337Z" fill="#0A0A0A"/>
<path d="M11.8333 11.1111C11.8333 10.835 11.6095 10.6111 11.3333 10.6111C11.0572 10.6111 10.8333 10.835 10.8333 11.1111V11.5H10.4443C10.1682 11.5 9.94431 11.7239 9.94431 12C9.94431 12.2762 10.1682 12.5 10.4443 12.5H10.8333V12.8889C10.8333 13.1651 11.0572 13.3889 11.3333 13.3889C11.6095 13.3889 11.8333 13.1651 11.8333 12.8889V12.5H12.2221C12.4982 12.5 12.7221 12.2762 12.7221 12C12.7221 11.7239 12.4982 11.5 12.2221 11.5H11.8333V11.1111Z" fill="#0A0A0A"/>
<path fillRule="evenodd" clipRule="evenodd" d="M11.2078 8.83581C11.2494 8.83419 11.2913 8.83337 11.3333 8.83337C13.0822 8.83337 14.5 10.2511 14.5 12C14.5 13.7489 13.0822 15.1667 11.3333 15.1667C10.5469 15.1667 9.8275 14.8801 9.2738 14.4056C8.86604 14.4673 8.43914 14.5 7.99998 14.5C6.64042 14.5 5.38499 14.1862 4.45208 13.6531C3.53331 13.1281 2.83331 12.3266 2.83331 11.3334C2.83331 10.3401 3.53331 9.53864 4.45208 9.01363C5.38499 8.48054 6.64042 8.16671 7.99998 8.16671C9.20297 8.16671 10.3217 8.41228 11.2078 8.83581ZM11.3333 9.83337C10.1367 9.83337 9.16665 10.8034 9.16665 12C9.16665 13.1967 10.1367 14.1667 11.3333 14.1667C12.5299 14.1667 13.5 13.1967 13.5 12C13.5 10.8034 12.5299 9.83337 11.3333 9.83337ZM8.53392 13.4816C8.29945 13.0396 8.16665 12.5353 8.16665 12C8.16665 10.886 8.74195 9.90626 9.61169 9.34182C9.11779 9.22966 8.57405 9.16671 7.99998 9.16671C6.78221 9.16671 5.70431 9.44983 4.94822 9.88188C4.17798 10.322 3.83331 10.8539 3.83331 11.3334C3.83331 11.8129 4.17798 12.3447 4.94822 12.7849C5.70431 13.2169 6.78221 13.5 7.99998 13.5C8.18097 13.5 8.35917 13.4938 8.53392 13.4816Z" fill="#0A0A0A"/>
</svg>
