<svg width="18" height="18" viewBox="0 0 18 18" fill="none" xmlns="http://www.w3.org/2000/svg">
<path d="M7.35854 6.47467C7.11446 6.23059 6.71874 6.23059 6.47466 6.47467C6.23058 6.71875 6.23058 7.11448 6.47466 7.35855L8.11606 8.99996L6.47468 10.6413C6.2306 10.8854 6.2306 11.2811 6.47468 11.5252C6.71875 11.7693 7.11448 11.7693 7.35856 11.5252L8.99994 9.88384L10.6413 11.5252C10.8854 11.7693 11.2811 11.7693 11.5252 11.5252C11.7693 11.2811 11.7693 10.8854 11.5252 10.6413L9.88383 8.99996L11.5252 7.35857C11.7693 7.11449 11.7693 6.71877 11.5252 6.47469C11.2811 6.23061 10.8854 6.23061 10.6413 6.47469L8.99994 8.11607L7.35854 6.47467Z" fill="#0A0A0A"/>
<path fillRule="evenodd" clipRule="evenodd" d="M8.99996 0.041626C4.05241 0.041626 0.041626 4.05241 0.041626 8.99996C0.041626 13.9475 4.05241 17.9583 8.99996 17.9583C13.9475 17.9583 17.9583 13.9475 17.9583 8.99996C17.9583 4.05241 13.9475 0.041626 8.99996 0.041626ZM1.29163 8.99996C1.29163 4.74276 4.74276 1.29163 8.99996 1.29163C13.2572 1.29163 16.7083 4.74276 16.7083 8.99996C16.7083 13.2572 13.2572 16.7083 8.99996 16.7083C4.74276 16.7083 1.29163 13.2572 1.29163 8.99996Z" fill="#0A0A0A"/>
</svg>
