<svg width="24" height="25" viewBox="0 0 24 25" fill="none" xmlns="http://www.w3.org/2000/svg">
<path d="M12.0565 19.4998C15.9224 19.531 19.031 16.4224 18.9998 12.5565C18.9686 8.69062 15.8094 5.53143 11.9435 5.50023C8.07765 5.46904 4.96904 8.57765 5.00023 12.4435C5.03143 16.3094 8.19062 19.4686 12.0565 19.4998Z" stroke="#1C274C" strokeWidth="1.5" strokeLinecap="round"/>
<path d="M18 6.5L16.95 7.55003" stroke="#1C274C" strokeWidth="1.5" strokeLinecap="round"/>
<path d="M5 5.5L7 7.5" stroke="#1C274C" strokeWidth="1.5" strokeLinecap="round"/>
<path d="M17.0498 18.5498L16.5 18" stroke="#1C274C" strokeWidth="1.5" strokeLinecap="round"/>
<path d="M6 19.5498L7.05003 18.4998" stroke="#1C274C" strokeWidth="1.5" strokeLinecap="round"/>
<path d="M16.5 13.5C16.5 14.6046 15.6046 15.5 14.5 15.5C13.3954 15.5 12.5 14.6046 12.5 13.5C12.5 12.3954 13.3954 11.5 14.5 11.5C15.6046 11.5 16.5 12.3954 16.5 13.5Z" stroke="#1C274C" strokeWidth="1.5"/>
<path d="M11 9.5C11 10.0523 10.5523 10.5 10 10.5C9.44772 10.5 9 10.0523 9 9.5C9 8.94772 9.44772 8.5 10 8.5C10.5523 8.5 11 8.94772 11 9.5Z" stroke="#1C274C" strokeWidth="1.5"/>
<circle cx="9" cy="13.5" r="1" fill="#1C274C"/>
<circle cx="19.5" cy="5" r="1.5" stroke="#1C274C" strokeWidth="1.5"/>
<circle cx="1.5" cy="1.5" r="1.5" transform="matrix(-1 0 0 1 5 2.5)" stroke="#1C274C" strokeWidth="1.5"/>
<path d="M2 12.5C2 13.3284 2.67157 14 3.5 14C4.32843 14 5 13.3284 5 12.5C5 11.6716 4.32843 11 3.5 11C2.67157 11 2 11.6716 2 12.5Z" stroke="#1C274C" strokeWidth="1.5"/>
<circle cx="1.5" cy="1.5" r="1.5" transform="matrix(1 0 0 -1 17.0498 21.5498)" stroke="#1C274C" strokeWidth="1.5"/>
<circle cx="4.5" cy="21" r="1.5" transform="rotate(180 4.5 21)" stroke="#1C274C" strokeWidth="1.5"/>
<path d="M13.5 4C13.5 4.82843 12.8284 5.5 12 5.5C11.1716 5.5 10.5 4.82843 10.5 4C10.5 3.17157 11.1716 2.5 12 2.5C12.8284 2.5 13.5 3.17157 13.5 4Z" stroke="#1C274C" strokeWidth="1.5"/>
<path d="M19.5 14C20.3284 14 21 13.3284 21 12.5C21 11.6716 20.3284 11 19.5 11C19.3247 11 19.1564 11.0301 19 11.0854V13.9146C19.1564 13.9699 19.3247 14 19.5 14Z" stroke="#1C274C" strokeWidth="1.5"/>
<path d="M10.5857 19.5C10.7916 20.0826 11.3472 20.5001 12.0004 20.5001C12.6535 20.5001 13.2091 20.0826 13.415 19.5L10.5857 19.5Z" stroke="#1C274C" strokeWidth="1.5"/>
</svg>
